<svg width="29" height="32" viewBox="0 0 29 32" fill="none" xmlns="http://www.w3.org/2000/svg">
<g clip-path="url(#clip0_1_450)">
<path d="M28.8711 9.36635C28.8709 8.84083 28.7547 8.37647 28.5198 7.97803C28.289 7.58602 27.9434 7.25755 27.4798 6.99784C23.653 4.86326 19.8225 2.7352 15.997 0.598442C14.9656 0.0224452 13.9657 0.0435528 12.942 0.627819C11.4188 1.49671 3.79282 5.72333 1.52037 6.99664C0.584517 7.52085 0.129128 8.32294 0.128904 9.36537C0.127441 13.6581 0.128904 17.9509 0.127441 22.2437C0.127441 22.7577 0.238899 23.2131 0.4635 23.6056C0.694399 24.0093 1.04485 24.3468 1.51914 24.6124C3.79169 25.8857 11.4187 30.112 12.9415 30.9812C13.9657 31.5658 14.9656 31.5867 15.9973 31.0106C19.823 28.8737 23.6537 26.7457 27.481 24.6111C27.9553 24.3456 28.3057 24.0079 28.5366 23.6045C28.7609 23.2119 28.8726 22.7566 28.8726 22.2425C28.8726 22.2425 28.8726 13.6592 28.8711 9.36635Z" fill="#A179DC"/>
<path d="M14.5439 15.7627L0.463379 23.6056C0.694279 24.0093 1.04473 24.3468 1.51902 24.6124C3.79157 25.8857 11.4186 30.112 12.9414 30.9813C13.9656 31.5658 14.9655 31.5867 15.9972 31.0106C19.8228 28.8738 23.6535 26.7457 27.4809 24.6111C27.9552 24.3457 28.3056 24.0079 28.5365 23.6045L14.5439 15.7627Z" fill="#280068"/>
<path d="M28.8711 9.36635C28.8709 8.84084 28.7547 8.37647 28.5197 7.97804L14.5439 15.7628L28.5366 23.6045C28.7609 23.2119 28.8723 22.7566 28.8725 22.2425C28.8725 22.2425 28.8725 13.6592 28.8711 9.36635Z" fill="#390091"/>
<path d="M22.834 12.8308V14.2968H24.3495V12.8308H25.1072V14.2968H26.6226V15.0298H25.1072V16.4957H26.6226V17.2287H25.1072V18.6947H24.3495V17.2287H22.834V18.6947H22.0763V17.2287H20.561V16.4957H22.0763V15.0298H20.561V14.2968H22.0763V12.8308H22.834ZM24.3495 15.0297H22.834V16.4957H24.3495V15.0297Z" fill="white"/>
<path d="M14.5748 5.46843C18.5275 5.46843 21.9784 7.54502 23.8268 10.6317L23.8088 10.602L19.1582 13.1924C18.242 11.6917 16.5624 10.6788 14.6355 10.658L14.5747 10.6576C11.6365 10.6576 9.25436 12.962 9.25436 15.8045C9.2534 16.7004 9.49535 17.5809 9.95606 18.3581C10.8731 19.9069 12.5972 20.9515 14.5748 20.9515C16.5648 20.9515 18.2986 19.8936 19.2109 18.3283L19.1888 18.3658L23.8323 20.9681C22.0041 24.0287 18.6005 26.0989 14.6938 26.1401L14.5748 26.1408C10.6097 26.1408 7.14905 24.0513 5.30523 20.9483C4.40513 19.4335 3.89014 17.6773 3.89014 15.8045C3.89014 10.0961 8.67368 5.46832 14.5747 5.46832L14.5748 5.46843Z" fill="white"/>
</g>
<defs>
<clipPath id="clip0_1_450">
<rect width="29" height="31.5643" fill="white" transform="translate(0 0.0224609)"/>
</clipPath>
</defs>
</svg>
