<svg width="116" height="21" viewBox="0 0 116 21" fill="none" xmlns="http://www.w3.org/2000/svg">
<path d="M7.75586 3.03418L3.50195 16H0.0751953L5.88672 0.359375H8.06738L7.75586 3.03418ZM11.29 16L7.02539 3.03418L6.68164 0.359375H8.88379L14.7275 16H11.29ZM11.0967 10.1777V12.7021H2.83594V10.1777H11.0967ZM19.0781 6.91211V16H15.9844V4.37695H18.8955L19.0781 6.91211ZM22.5801 4.30176L22.5264 7.16992C22.376 7.14844 22.1934 7.13053 21.9785 7.11621C21.7708 7.09473 21.5811 7.08398 21.4092 7.08398C20.9723 7.08398 20.5928 7.14128 20.2705 7.25586C19.9554 7.36328 19.6904 7.52441 19.4756 7.73926C19.2679 7.9541 19.1104 8.21549 19.0029 8.52344C18.9027 8.83138 18.8454 9.18229 18.8311 9.57617L18.208 9.38281C18.208 8.63086 18.2832 7.93978 18.4336 7.30957C18.584 6.6722 18.8024 6.11719 19.0889 5.64453C19.3825 5.17188 19.7406 4.80664 20.1631 4.54883C20.5856 4.29102 21.069 4.16211 21.6133 4.16211C21.7852 4.16211 21.9606 4.17643 22.1396 4.20508C22.3187 4.22656 22.4655 4.25879 22.5801 4.30176ZM30.2715 4.37695V6.56836H23.5039V4.37695H30.2715ZM25.1797 1.50879H28.2734V12.498C28.2734 12.8346 28.3164 13.0924 28.4023 13.2715C28.4954 13.4505 28.6315 13.5758 28.8105 13.6475C28.9896 13.7119 29.2152 13.7441 29.4873 13.7441C29.6807 13.7441 29.8525 13.737 30.0029 13.7227C30.1605 13.7012 30.293 13.6797 30.4004 13.6582L30.4111 15.9355C30.1462 16.0215 29.8597 16.0895 29.5518 16.1396C29.2438 16.1898 28.9036 16.2148 28.5312 16.2148C27.8509 16.2148 27.2565 16.1038 26.748 15.8818C26.2467 15.6527 25.86 15.2874 25.5879 14.7861C25.3158 14.2848 25.1797 13.626 25.1797 12.8096V1.50879ZM37.3828 16.2148C36.4805 16.2148 35.6712 16.0716 34.9551 15.7852C34.2389 15.4915 33.6302 15.0869 33.1289 14.5713C32.6348 14.0557 32.2552 13.4577 31.9902 12.7773C31.7253 12.0898 31.5928 11.3594 31.5928 10.5859V10.1562C31.5928 9.27539 31.7181 8.46973 31.9688 7.73926C32.2194 7.00879 32.5775 6.375 33.043 5.83789C33.5156 5.30078 34.0885 4.889 34.7617 4.60254C35.4349 4.30892 36.194 4.16211 37.0391 4.16211C37.8626 4.16211 38.5931 4.29818 39.2305 4.57031C39.8678 4.84245 40.4014 5.22917 40.8311 5.73047C41.2679 6.23177 41.5973 6.83333 41.8193 7.53516C42.0413 8.22982 42.1523 9.00326 42.1523 9.85547V11.1445H32.9141V9.08203H39.1123V8.8457C39.1123 8.41602 39.0335 8.03288 38.876 7.69629C38.7256 7.35254 38.4964 7.0804 38.1885 6.87988C37.8805 6.67936 37.4867 6.5791 37.0068 6.5791C36.5986 6.5791 36.2477 6.66862 35.9541 6.84766C35.6605 7.02669 35.4206 7.27734 35.2344 7.59961C35.0553 7.92188 34.9193 8.30143 34.8262 8.73828C34.7402 9.16797 34.6973 9.64062 34.6973 10.1562V10.5859C34.6973 11.0514 34.7617 11.4811 34.8906 11.875C35.0267 12.2689 35.2165 12.609 35.46 12.8955C35.7106 13.182 36.0114 13.404 36.3623 13.5615C36.7204 13.7191 37.125 13.7979 37.5762 13.7979C38.1348 13.7979 38.654 13.6904 39.1338 13.4756C39.6208 13.2536 40.0397 12.9206 40.3906 12.4766L41.8945 14.1094C41.651 14.4603 41.318 14.7969 40.8955 15.1191C40.4801 15.4414 39.9788 15.7064 39.3916 15.9141C38.8044 16.1146 38.1348 16.2148 37.3828 16.2148ZM47.0078 6.7832V16H43.9033V4.37695H46.8145L47.0078 6.7832ZM46.5781 9.78027H45.7188C45.7188 8.97103 45.8154 8.22624 46.0088 7.5459C46.2093 6.8584 46.4993 6.264 46.8789 5.7627C47.2656 5.25423 47.7419 4.86035 48.3076 4.58105C48.8734 4.30176 49.5286 4.16211 50.2734 4.16211C50.7891 4.16211 51.2617 4.24089 51.6914 4.39844C52.1211 4.54883 52.4899 4.78874 52.7979 5.11816C53.113 5.44043 53.3564 5.86296 53.5283 6.38574C53.7002 6.90137 53.7861 7.52083 53.7861 8.24414V16H50.6924V8.58789C50.6924 8.05794 50.6208 7.64974 50.4775 7.36328C50.3343 7.07682 50.1302 6.8763 49.8652 6.76172C49.6074 6.64714 49.2959 6.58984 48.9307 6.58984C48.5296 6.58984 48.1787 6.6722 47.8779 6.83691C47.5843 7.00163 47.3408 7.23079 47.1475 7.52441C46.9541 7.81087 46.8109 8.14746 46.7178 8.53418C46.6247 8.9209 46.5781 9.33626 46.5781 9.78027ZM53.4961 9.42578L52.3896 9.56543C52.3896 8.80632 52.4827 8.10091 52.6689 7.44922C52.8623 6.79753 53.1452 6.22461 53.5176 5.73047C53.8971 5.23633 54.3662 4.85319 54.9248 4.58105C55.4834 4.30176 56.1279 4.16211 56.8584 4.16211C57.417 4.16211 57.9255 4.24447 58.3838 4.40918C58.8421 4.56673 59.2324 4.82096 59.5547 5.17188C59.8841 5.51562 60.1348 5.9668 60.3066 6.52539C60.4857 7.08398 60.5752 7.7679 60.5752 8.57715V16H57.4707V8.57715C57.4707 8.04004 57.3991 7.63184 57.2559 7.35254C57.1198 7.06608 56.9193 6.86914 56.6543 6.76172C56.3965 6.64714 56.0885 6.58984 55.7305 6.58984C55.3581 6.58984 55.0322 6.66504 54.7529 6.81543C54.4736 6.95866 54.2409 7.15918 54.0547 7.41699C53.8685 7.6748 53.7288 7.97559 53.6357 8.31934C53.5426 8.65592 53.4961 9.02474 53.4961 9.42578ZM78.6973 13.4863V16H70.8232V13.4863H78.6973ZM71.8652 0.359375V16H68.6426V0.359375H71.8652ZM79.8574 10.3066V10.0811C79.8574 9.22884 79.9792 8.44466 80.2227 7.72852C80.4661 7.00521 80.8206 6.37858 81.2861 5.84863C81.7516 5.31868 82.3245 4.9069 83.0049 4.61328C83.6852 4.3125 84.4658 4.16211 85.3467 4.16211C86.2275 4.16211 87.0117 4.3125 87.6992 4.61328C88.3867 4.9069 88.9632 5.31868 89.4287 5.84863C89.9014 6.37858 90.2594 7.00521 90.5029 7.72852C90.7464 8.44466 90.8682 9.22884 90.8682 10.0811V10.3066C90.8682 11.1517 90.7464 11.9359 90.5029 12.6592C90.2594 13.3753 89.9014 14.002 89.4287 14.5391C88.9632 15.069 88.3903 15.4808 87.71 15.7744C87.0296 16.068 86.249 16.2148 85.3682 16.2148C84.4873 16.2148 83.7031 16.068 83.0156 15.7744C82.3353 15.4808 81.7588 15.069 81.2861 14.5391C80.8206 14.002 80.4661 13.3753 80.2227 12.6592C79.9792 11.9359 79.8574 11.1517 79.8574 10.3066ZM82.9512 10.0811V10.3066C82.9512 10.7936 82.9941 11.2484 83.0801 11.6709C83.166 12.0934 83.3021 12.4658 83.4883 12.7881C83.6816 13.1032 83.9323 13.3503 84.2402 13.5293C84.5482 13.7083 84.9242 13.7979 85.3682 13.7979C85.7979 13.7979 86.1667 13.7083 86.4746 13.5293C86.7826 13.3503 87.0296 13.1032 87.2158 12.7881C87.402 12.4658 87.5381 12.0934 87.624 11.6709C87.7171 11.2484 87.7637 10.7936 87.7637 10.3066V10.0811C87.7637 9.6084 87.7171 9.16439 87.624 8.74902C87.5381 8.3265 87.3984 7.9541 87.2051 7.63184C87.0189 7.30241 86.7718 7.0446 86.4639 6.8584C86.1559 6.6722 85.7835 6.5791 85.3467 6.5791C84.9098 6.5791 84.5374 6.6722 84.2295 6.8584C83.9287 7.0446 83.6816 7.30241 83.4883 7.63184C83.3021 7.9541 83.166 8.3265 83.0801 8.74902C82.9941 9.16439 82.9512 9.6084 82.9512 10.0811ZM100.128 4.37695H102.932V15.6133C102.932 16.6732 102.695 17.5719 102.223 18.3096C101.757 19.0544 101.105 19.6165 100.268 19.9961C99.4297 20.3828 98.4557 20.5762 97.3457 20.5762C96.8587 20.5762 96.3431 20.5117 95.7988 20.3828C95.2617 20.2539 94.7461 20.0534 94.252 19.7812C93.765 19.5091 93.3568 19.1654 93.0273 18.75L94.3916 16.9238C94.7497 17.3392 95.165 17.6615 95.6377 17.8906C96.1104 18.127 96.6331 18.2451 97.2061 18.2451C97.7646 18.2451 98.2373 18.1413 98.624 17.9336C99.0107 17.7331 99.3079 17.4359 99.5156 17.042C99.7233 16.6553 99.8271 16.1862 99.8271 15.6348V7.0625L100.128 4.37695ZM92.3076 10.3281V10.1025C92.3076 9.21452 92.415 8.40885 92.6299 7.68555C92.8519 6.95508 93.1634 6.32845 93.5645 5.80566C93.9727 5.28288 94.4668 4.87826 95.0469 4.5918C95.627 4.30534 96.2822 4.16211 97.0127 4.16211C97.7861 4.16211 98.4342 4.30534 98.957 4.5918C99.4798 4.87826 99.9095 5.28646 100.246 5.81641C100.583 6.33919 100.844 6.95866 101.03 7.6748C101.224 8.38379 101.374 9.16081 101.481 10.0059V10.5C101.374 11.3092 101.213 12.0612 100.998 12.7559C100.783 13.4505 100.5 14.0592 100.149 14.582C99.7985 15.0977 99.3617 15.4987 98.8389 15.7852C98.3232 16.0716 97.7074 16.2148 96.9912 16.2148C96.2751 16.2148 95.627 16.068 95.0469 15.7744C94.474 15.4808 93.9834 15.069 93.5752 14.5391C93.167 14.0091 92.8519 13.3861 92.6299 12.6699C92.415 11.9538 92.3076 11.1732 92.3076 10.3281ZM95.4014 10.1025V10.3281C95.4014 10.8079 95.4479 11.2555 95.541 11.6709C95.6341 12.0863 95.7773 12.4551 95.9707 12.7773C96.1712 13.0924 96.4183 13.3395 96.7119 13.5186C97.0127 13.6904 97.3672 13.7764 97.7754 13.7764C98.3411 13.7764 98.8031 13.6582 99.1611 13.4219C99.5192 13.1784 99.7878 12.8454 99.9668 12.4229C100.146 12.0003 100.25 11.5133 100.278 10.9619V9.55469C100.264 9.10352 100.203 8.69889 100.096 8.34082C99.9883 7.97559 99.8379 7.66406 99.6445 7.40625C99.4512 7.14844 99.2005 6.94792 98.8926 6.80469C98.5846 6.66146 98.2194 6.58984 97.7969 6.58984C97.3887 6.58984 97.0342 6.68294 96.7334 6.86914C96.4398 7.04818 96.1927 7.29525 95.9922 7.61035C95.7988 7.92546 95.652 8.29785 95.5518 8.72754C95.4515 9.15007 95.4014 9.6084 95.4014 10.1025ZM104.844 10.3066V10.0811C104.844 9.22884 104.965 8.44466 105.209 7.72852C105.452 7.00521 105.807 6.37858 106.272 5.84863C106.738 5.31868 107.311 4.9069 107.991 4.61328C108.672 4.3125 109.452 4.16211 110.333 4.16211C111.214 4.16211 111.998 4.3125 112.686 4.61328C113.373 4.9069 113.95 5.31868 114.415 5.84863C114.888 6.37858 115.246 7.00521 115.489 7.72852C115.733 8.44466 115.854 9.22884 115.854 10.0811V10.3066C115.854 11.1517 115.733 11.9359 115.489 12.6592C115.246 13.3753 114.888 14.002 114.415 14.5391C113.95 15.069 113.377 15.4808 112.696 15.7744C112.016 16.068 111.235 16.2148 110.354 16.2148C109.474 16.2148 108.689 16.068 108.002 15.7744C107.322 15.4808 106.745 15.069 106.272 14.5391C105.807 14.002 105.452 13.3753 105.209 12.6592C104.965 11.9359 104.844 11.1517 104.844 10.3066ZM107.938 10.0811V10.3066C107.938 10.7936 107.98 11.2484 108.066 11.6709C108.152 12.0934 108.288 12.4658 108.475 12.7881C108.668 13.1032 108.919 13.3503 109.227 13.5293C109.535 13.7083 109.91 13.7979 110.354 13.7979C110.784 13.7979 111.153 13.7083 111.461 13.5293C111.769 13.3503 112.016 13.1032 112.202 12.7881C112.388 12.4658 112.524 12.0934 112.61 11.6709C112.703 11.2484 112.75 10.7936 112.75 10.3066V10.0811C112.75 9.6084 112.703 9.16439 112.61 8.74902C112.524 8.3265 112.385 7.9541 112.191 7.63184C112.005 7.30241 111.758 7.0446 111.45 6.8584C111.142 6.6722 110.77 6.5791 110.333 6.5791C109.896 6.5791 109.524 6.6722 109.216 6.8584C108.915 7.0446 108.668 7.30241 108.475 7.63184C108.288 7.9541 108.152 8.3265 108.066 8.74902C107.98 9.16439 107.938 9.6084 107.938 10.0811Z" fill="#323232"/>
</svg>
