<svg width="85" height="18" viewBox="0 0 85 18" fill="none" xmlns="http://www.w3.org/2000/svg">
<path d="M1.86816 1.35938H4.59668L8.61426 12.8428L12.6318 1.35938H15.3604L9.70996 17H7.51855L1.86816 1.35938ZM0.396484 1.35938H3.11426L3.6084 12.5527V17H0.396484V1.35938ZM14.1143 1.35938H16.8428V17H13.6201V12.5527L14.1143 1.35938ZM24.8242 17.2148C23.9219 17.2148 23.1126 17.0716 22.3965 16.7852C21.6803 16.4915 21.0716 16.0869 20.5703 15.5713C20.0762 15.0557 19.6966 14.4577 19.4316 13.7773C19.1667 13.0898 19.0342 12.3594 19.0342 11.5859V11.1562C19.0342 10.2754 19.1595 9.46973 19.4102 8.73926C19.6608 8.00879 20.0189 7.375 20.4844 6.83789C20.957 6.30078 21.5299 5.889 22.2031 5.60254C22.8763 5.30892 23.6354 5.16211 24.4805 5.16211C25.304 5.16211 26.0345 5.29818 26.6719 5.57031C27.3092 5.84245 27.8428 6.22917 28.2725 6.73047C28.7093 7.23177 29.0387 7.83333 29.2607 8.53516C29.4827 9.22982 29.5938 10.0033 29.5938 10.8555V12.1445H20.3555V10.082H26.5537V9.8457C26.5537 9.41602 26.4749 9.03288 26.3174 8.69629C26.167 8.35254 25.9378 8.0804 25.6299 7.87988C25.3219 7.67936 24.9281 7.5791 24.4482 7.5791C24.04 7.5791 23.6891 7.66862 23.3955 7.84766C23.1019 8.02669 22.862 8.27734 22.6758 8.59961C22.4967 8.92188 22.3607 9.30143 22.2676 9.73828C22.1816 10.168 22.1387 10.6406 22.1387 11.1562V11.5859C22.1387 12.0514 22.2031 12.4811 22.332 12.875C22.4681 13.2689 22.6579 13.609 22.9014 13.8955C23.152 14.182 23.4528 14.404 23.8037 14.5615C24.1618 14.7191 24.5664 14.7979 25.0176 14.7979C25.5762 14.7979 26.0954 14.6904 26.5752 14.4756C27.0622 14.2536 27.4811 13.9206 27.832 13.4766L29.3359 15.1094C29.0924 15.4603 28.7594 15.7969 28.3369 16.1191C27.9215 16.4414 27.4202 16.7064 26.833 16.9141C26.2458 17.1146 25.5762 17.2148 24.8242 17.2148ZM34.6211 0.5V17H31.5166V0.5H34.6211ZM40.2715 0.489258V17H37.1777V0.489258H40.2715ZM47.5977 5.37695L42.5488 11.1348L39.8418 13.874L38.7139 11.6396L40.8623 8.91113L43.8809 5.37695H47.5977ZM44.3857 17L40.9482 11.6289L43.0859 9.75977L47.9521 17H44.3857ZM48.4355 11.3066V11.0811C48.4355 10.2288 48.5573 9.44466 48.8008 8.72852C49.0443 8.00521 49.3988 7.37858 49.8643 6.84863C50.3298 6.31868 50.9027 5.9069 51.583 5.61328C52.2633 5.3125 53.0439 5.16211 53.9248 5.16211C54.8057 5.16211 55.5898 5.3125 56.2773 5.61328C56.9648 5.9069 57.5413 6.31868 58.0068 6.84863C58.4795 7.37858 58.8376 8.00521 59.0811 8.72852C59.3245 9.44466 59.4463 10.2288 59.4463 11.0811V11.3066C59.4463 12.1517 59.3245 12.9359 59.0811 13.6592C58.8376 14.3753 58.4795 15.002 58.0068 15.5391C57.5413 16.069 56.9684 16.4808 56.2881 16.7744C55.6077 17.068 54.8271 17.2148 53.9463 17.2148C53.0654 17.2148 52.2812 17.068 51.5938 16.7744C50.9134 16.4808 50.3369 16.069 49.8643 15.5391C49.3988 15.002 49.0443 14.3753 48.8008 13.6592C48.5573 12.9359 48.4355 12.1517 48.4355 11.3066ZM51.5293 11.0811V11.3066C51.5293 11.7936 51.5723 12.2484 51.6582 12.6709C51.7441 13.0934 51.8802 13.4658 52.0664 13.7881C52.2598 14.1032 52.5104 14.3503 52.8184 14.5293C53.1263 14.7083 53.5023 14.7979 53.9463 14.7979C54.376 14.7979 54.7448 14.7083 55.0527 14.5293C55.3607 14.3503 55.6077 14.1032 55.7939 13.7881C55.9801 13.4658 56.1162 13.0934 56.2021 12.6709C56.2952 12.2484 56.3418 11.7936 56.3418 11.3066V11.0811C56.3418 10.6084 56.2952 10.1644 56.2021 9.74902C56.1162 9.3265 55.9766 8.9541 55.7832 8.63184C55.597 8.30241 55.3499 8.0446 55.042 7.8584C54.734 7.6722 54.3617 7.5791 53.9248 7.5791C53.488 7.5791 53.1156 7.6722 52.8076 7.8584C52.5068 8.0446 52.2598 8.30241 52.0664 8.63184C51.8802 8.9541 51.7441 9.3265 51.6582 9.74902C51.5723 10.1644 51.5293 10.6084 51.5293 11.0811ZM65.1289 14.7441L67.707 5.37695H70.9404L67.0195 17H65.0645L65.1289 14.7441ZM63.3564 5.37695L65.9453 14.7549L65.999 17H64.0332L60.1123 5.37695H63.3564ZM74.2383 0.5V2.05762L73.9268 6.34375H71.9717L71.9824 2.21875V0.5H74.2383ZM81.3818 13.7881C81.3818 13.5661 81.3174 13.3656 81.1885 13.1865C81.0596 13.0075 80.8197 12.8428 80.4688 12.6924C80.125 12.5348 79.6273 12.3916 78.9756 12.2627C78.3883 12.1338 77.8405 11.9727 77.332 11.7793C76.8307 11.5788 76.3939 11.3389 76.0215 11.0596C75.6562 10.7803 75.3698 10.4508 75.1621 10.0713C74.9544 9.68457 74.8506 9.24414 74.8506 8.75C74.8506 8.26302 74.9544 7.80469 75.1621 7.375C75.377 6.94531 75.6813 6.56576 76.0752 6.23633C76.4762 5.89974 76.9632 5.63835 77.5361 5.45215C78.1162 5.25879 78.7679 5.16211 79.4912 5.16211C80.501 5.16211 81.3675 5.32324 82.0908 5.64551C82.8213 5.96777 83.3799 6.41178 83.7666 6.97754C84.1605 7.53613 84.3574 8.1735 84.3574 8.88965H81.2637C81.2637 8.58887 81.1992 8.32031 81.0703 8.08398C80.9486 7.84049 80.7552 7.65072 80.4902 7.51465C80.2324 7.37142 79.8958 7.2998 79.4805 7.2998C79.1367 7.2998 78.8395 7.36068 78.5889 7.48242C78.3382 7.59701 78.1449 7.75456 78.0088 7.95508C77.8799 8.14844 77.8154 8.36328 77.8154 8.59961C77.8154 8.77865 77.8512 8.93978 77.9229 9.08301C78.0016 9.21908 78.127 9.3444 78.2988 9.45898C78.4707 9.57357 78.6927 9.68099 78.9648 9.78125C79.2441 9.87435 79.5879 9.96029 79.9961 10.0391C80.834 10.2109 81.5824 10.4365 82.2412 10.7158C82.9001 10.988 83.4229 11.3604 83.8096 11.833C84.1963 12.2985 84.3896 12.9108 84.3896 13.6699C84.3896 14.1855 84.2751 14.6582 84.0459 15.0879C83.8167 15.5176 83.4873 15.8936 83.0576 16.2158C82.6279 16.5309 82.1123 16.778 81.5107 16.957C80.9163 17.1289 80.2467 17.2148 79.502 17.2148C78.4206 17.2148 77.5039 17.0215 76.752 16.6348C76.0072 16.248 75.4414 15.7575 75.0547 15.1631C74.6751 14.5615 74.4854 13.9456 74.4854 13.3154H77.418C77.4323 13.738 77.5397 14.0781 77.7402 14.3359C77.9479 14.5938 78.2093 14.7799 78.5244 14.8945C78.8467 15.0091 79.194 15.0664 79.5664 15.0664C79.9674 15.0664 80.3005 15.0127 80.5654 14.9053C80.8304 14.7907 81.0309 14.6403 81.167 14.4541C81.3102 14.2607 81.3818 14.0387 81.3818 13.7881Z" fill="#323232"/>
</svg>
