<svg width="26" height="26" viewBox="0 0 26 26" fill="none" xmlns="http://www.w3.org/2000/svg">
<circle cx="13" cy="13" r="13" fill="#D96D6D"/>
<path d="M13.748 8.04688L13.584 15.0674H12.1758L12.0049 8.04688H13.748ZM11.957 17.2207C11.957 16.9701 12.0391 16.7604 12.2031 16.5918C12.3717 16.4186 12.6042 16.332 12.9004 16.332C13.1921 16.332 13.4222 16.4186 13.5908 16.5918C13.7594 16.7604 13.8438 16.9701 13.8438 17.2207C13.8438 17.4622 13.7594 17.6696 13.5908 17.8428C13.4222 18.0114 13.1921 18.0957 12.9004 18.0957C12.6042 18.0957 12.3717 18.0114 12.2031 17.8428C12.0391 17.6696 11.957 17.4622 11.957 17.2207Z" fill="white"/>
</svg>
