<svg width="26" height="26" viewBox="0 0 26 26" fill="none" xmlns="http://www.w3.org/2000/svg">
<circle cx="13" cy="13" r="13" fill="white"/>
<path d="M6.88393 6C6.66034 6 6.42653 6.0752 6.25589 6.2457C5.9147 6.58758 5.9147 7.16116 6.25589 7.50304L11.744 12.995L6.25589 18.4869C5.9147 18.8288 5.9147 19.4024 6.25589 19.7442C6.59717 20.0853 7.17068 20.0853 7.51196 19.7442L13 14.2523L18.488 19.7442C18.8293 20.0853 19.4028 20.0853 19.7441 19.7442C20.0853 19.4024 20.0853 18.8288 19.7441 18.4869L14.256 12.995L19.7441 7.50304C20.0853 7.16116 20.0853 6.58758 19.7441 6.2457C19.5735 6.0752 19.3396 6 19.1161 6C18.8925 6 18.6588 6.0752 18.488 6.2457L13 11.7376L7.51196 6.2457C7.34132 6.0752 7.10751 6 6.88393 6Z" fill="#7F7F7F"/>
</svg>
