<svg width="18" height="19" viewBox="0 0 18 19" fill="none" xmlns="http://www.w3.org/2000/svg">
<path fill-rule="evenodd" clip-rule="evenodd" d="M13.8724 12.7873L17.8717 16.7921C18.0502 16.9908 18.0414 17.295 17.8517 17.483L17.1518 18.1838C17.0579 18.2786 16.9301 18.3319 16.7969 18.3319C16.6636 18.3319 16.5358 18.2786 16.4419 18.1838L12.4427 14.179C12.3321 14.0681 12.2317 13.9475 12.1427 13.8186L11.3929 12.8174C10.1522 13.8095 8.61139 14.3497 7.02369 14.3492C3.75191 14.3606 0.908851 12.1005 0.177697 8.90701C-0.553466 5.71352 1.02241 2.4389 3.97236 1.02182C6.9223 -0.395248 10.459 0.423422 12.4887 2.99316C14.5183 5.5629 14.4992 9.19791 12.4427 11.7461L13.4425 12.4369C13.5987 12.537 13.7428 12.6545 13.8724 12.7873ZM2.02462 7.34081C2.02462 10.1055 4.26277 12.3468 7.02369 12.3468C8.34954 12.3468 9.6211 11.8194 10.5585 10.8806C11.4961 9.94181 12.0228 8.66851 12.0228 7.34081C12.0228 4.57603 9.78457 2.33476 7.02369 2.33476C4.26277 2.33476 2.02462 4.57603 2.02462 7.34081Z" fill="#323232"/>
</svg>
