<svg width="16" height="12" viewBox="0 0 16 12" fill="none" xmlns="http://www.w3.org/2000/svg">
<path d="M10.2861 0.285156C13.4417 0.285382 15.9998 2.84344 16 5.99902C16 9.1548 13.4419 11.7136 10.2861 11.7139H5.71387C2.55815 11.7136 0 9.1548 0 5.99902C0.000226243 2.84344 2.55829 0.285382 5.71387 0.285156H10.2861ZM4.57031 4.85645C3.93935 4.8566 3.42789 5.36806 3.42773 5.99902C3.42773 6.63011 3.93926 7.14243 4.57031 7.14258C5.2015 7.14258 5.71387 6.63021 5.71387 5.99902C5.71372 5.36797 5.2014 4.85645 4.57031 4.85645ZM8 4.85645C7.36904 4.8566 6.85757 5.36806 6.85742 5.99902C6.85742 6.63011 7.36895 7.14243 8 7.14258C8.63118 7.14258 9.14355 6.63021 9.14355 5.99902C9.1434 5.36797 8.63109 4.85645 8 4.85645ZM11.4277 4.85645C10.7968 4.8566 10.2853 5.36806 10.2852 5.99902C10.2852 6.63011 10.7967 7.14243 11.4277 7.14258C12.0589 7.14258 12.5713 6.63021 12.5713 5.99902C12.5711 5.36797 12.0588 4.85645 11.4277 4.85645Z" fill="#9D9D9D"/>
</svg>
