<svg width="17" height="17" viewBox="0 0 17 17" fill="none" xmlns="http://www.w3.org/2000/svg">
<mask id="mask0_1_378" style="mask-type:luminance" maskUnits="userSpaceOnUse" x="0" y="0" width="17" height="17">
<path d="M16.8023 6.95455H8.69767V10.2386H13.3628C12.9279 12.325 11.1093 13.5227 8.69767 13.5227C5.85116 13.5227 3.55814 11.2818 3.55814 8.5C3.55814 5.71818 5.85116 3.47727 8.69767 3.47727C9.92326 3.47727 11.0302 3.90227 11.9 4.59773L14.4302 2.125C12.8884 0.811364 10.9116 0 8.69767 0C3.87442 0 0 3.78636 0 8.5C0 13.2136 3.87442 17 8.69767 17C13.0465 17 17 13.9091 17 8.5C17 7.99773 16.9209 7.45682 16.8023 6.95455Z" fill="white"/>
</mask>
<g mask="url(#mask0_1_378)">
<path d="M-0.791016 13.5232V3.47772L5.92991 8.50045L-0.791016 13.5232Z" fill="#FBBC05"/>
</g>
<mask id="mask1_1_378" style="mask-type:luminance" maskUnits="userSpaceOnUse" x="0" y="0" width="17" height="17">
<path d="M16.8023 6.95455H8.69767V10.2386H13.3628C12.9279 12.325 11.1093 13.5227 8.69767 13.5227C5.85116 13.5227 3.55814 11.2818 3.55814 8.5C3.55814 5.71818 5.85116 3.47727 8.69767 3.47727C9.92326 3.47727 11.0302 3.90227 11.9 4.59773L14.4302 2.125C12.8884 0.811364 10.9116 0 8.69767 0C3.87442 0 0 3.78636 0 8.5C0 13.2136 3.87442 17 8.69767 17C13.0465 17 17 13.9091 17 8.5C17 7.99773 16.9209 7.45682 16.8023 6.95455Z" fill="white"/>
</mask>
<g mask="url(#mask1_1_378)">
<path d="M-0.791016 3.47754L5.92991 8.50027L8.69736 6.14345L18.1857 4.63663V-0.772461H-0.791016V3.47754Z" fill="#EA4335"/>
</g>
<mask id="mask2_1_378" style="mask-type:luminance" maskUnits="userSpaceOnUse" x="0" y="0" width="17" height="17">
<path d="M16.8023 6.95455H8.69767V10.2386H13.3628C12.9279 12.325 11.1093 13.5227 8.69767 13.5227C5.85116 13.5227 3.55814 11.2818 3.55814 8.5C3.55814 5.71818 5.85116 3.47727 8.69767 3.47727C9.92326 3.47727 11.0302 3.90227 11.9 4.59773L14.4302 2.125C12.8884 0.811364 10.9116 0 8.69767 0C3.87442 0 0 3.78636 0 8.5C0 13.2136 3.87442 17 8.69767 17C13.0465 17 17 13.9091 17 8.5C17 7.99773 16.9209 7.45682 16.8023 6.95455Z" fill="white"/>
</mask>
<g mask="url(#mask2_1_378)">
<path d="M-0.791016 13.523L11.0694 4.63663L14.1927 5.02299L18.1857 -0.772461V17.773H-0.791016V13.523Z" fill="#34A853"/>
</g>
<mask id="mask3_1_378" style="mask-type:luminance" maskUnits="userSpaceOnUse" x="0" y="0" width="17" height="17">
<path d="M16.8023 6.95455H8.69767V10.2386H13.3628C12.9279 12.325 11.1093 13.5227 8.69767 13.5227C5.85116 13.5227 3.55814 11.2818 3.55814 8.5C3.55814 5.71818 5.85116 3.47727 8.69767 3.47727C9.92326 3.47727 11.0302 3.90227 11.9 4.59773L14.4302 2.125C12.8884 0.811364 10.9116 0 8.69767 0C3.87442 0 0 3.78636 0 8.5C0 13.2136 3.87442 17 8.69767 17C13.0465 17 17 13.9091 17 8.5C17 7.99773 16.9209 7.45682 16.8023 6.95455Z" fill="white"/>
</mask>
<g mask="url(#mask3_1_378)">
<path d="M18.1868 17.7732L5.931 8.50045L4.34961 7.34136L18.1868 3.47772V17.7732Z" fill="#4285F4"/>
</g>
</svg>
