<svg width="23" height="23" viewBox="0 0 23 23" fill="none" xmlns="http://www.w3.org/2000/svg">
<path d="M15.0342 0C21.4787 5.15776e-05 23 1.53383 23 7.97852V15.0342C22.9999 21.4787 21.4662 23 15.0215 23H7.96582C1.5213 22.9999 0 21.4662 0 15.0215V7.96582C5.17448e-05 1.53328 1.53383 0 7.97852 0H15.0342ZM4.4082 6.94922C3.92904 6.94922 3.83301 7.17715 3.83301 7.42871C3.83312 7.87224 4.3963 10.0767 6.48047 12.9873C7.87003 14.9756 9.82291 16.0537 11.5957 16.0537C12.6614 16.0536 12.793 15.8135 12.793 15.4062V13.8975C12.793 13.4183 12.889 13.3223 13.2363 13.3223C13.4879 13.3223 13.9072 13.4421 14.9014 14.4004C16.0394 15.5384 16.2313 16.0537 16.8662 16.0537H18.543C19.0221 16.0537 19.2619 15.8139 19.1182 15.3467C18.9624 14.8795 18.4238 14.1963 17.7051 13.3818C17.3098 12.9146 16.7224 12.4234 16.5547 12.1719C16.3034 11.8486 16.375 11.7051 16.5547 11.4297C16.5547 11.4177 18.6028 8.54303 18.8066 7.56055C18.9144 7.20121 18.8067 6.94927 18.3037 6.94922H16.627C16.1957 6.94922 16.0033 7.17715 15.8955 7.42871C15.886 7.45195 15.038 9.52038 13.835 10.8545C13.4397 11.2497 13.2722 11.3701 13.0566 11.3701C12.9488 11.3701 12.793 11.2499 12.793 10.8906V7.56055C12.793 7.12948 12.6735 6.94938 12.3145 6.94922H9.67871C9.41517 6.94922 9.24707 7.15332 9.24707 7.33301C9.24733 7.74008 9.84611 7.83612 9.91797 8.96191V11.4297C9.91796 11.9687 9.82206 12.0645 9.60645 12.0645C9.04327 12.0638 7.65431 9.97947 6.83984 7.58398C6.67218 7.14093 6.51605 6.94926 6.08496 6.94922H4.4082Z" fill="#4389ED"/>
</svg>
