<svg width="22" height="22" viewBox="0 0 22 22" fill="none" xmlns="http://www.w3.org/2000/svg">
<g clip-path="url(#clip0_1_398)">
<path d="M11.0001 21.9776C17.0628 21.9776 21.9776 17.0627 21.9776 11C21.9776 4.93724 17.0628 0.0223999 11.0001 0.0223999C4.9373 0.0223999 0.0224609 4.93724 0.0224609 11C0.0224609 17.0627 4.9373 21.9776 11.0001 21.9776Z" fill="#FC3F1D"/>
<path d="M14.9722 17.8913H12.5623V5.97262H11.4888C9.52105 5.97262 8.49031 6.9565 8.49031 8.42521C8.49031 10.0915 9.20124 10.8635 10.672 11.8474L11.884 12.6643L8.40068 17.8893H5.80957L8.94457 13.2245C7.14179 11.9371 6.12735 10.6802 6.12735 8.55965C6.12735 5.90947 7.97494 4.10669 11.4725 4.10669H14.9559V17.8872H14.9722V17.8913Z" fill="white"/>
</g>
<defs>
<clipPath id="clip0_1_398">
<rect width="22" height="22" fill="white"/>
</clipPath>
</defs>
</svg>
