<svg width="14" height="12" viewBox="0 0 14 12" fill="none" xmlns="http://www.w3.org/2000/svg">
<path d="M3.85 0C1.72368 0 0 1.64124 0 3.66646C0 5.78901 1.26945 7.79156 3.36875 9.62479C4.08527 10.2501 4.85674 10.7987 5.62184 11.2914C5.89001 11.4634 6.14082 11.6194 6.36566 11.7493C6.50272 11.8287 6.59309 11.886 6.65 11.916C6.8614 12.028 7.1386 12.028 7.35 11.916C7.40691 11.886 7.49728 11.8287 7.63434 11.7493C7.85918 11.6194 8.10999 11.4634 8.37816 11.2914C9.14326 10.7987 9.91473 10.2501 10.6312 9.62479C12.7305 7.79156 14 5.78901 14 3.66646C14 1.64124 12.2763 0 10.15 0C8.94236 0 7.76328 0.62664 7.02184 1.54126C6.29888 0.610641 5.12393 0 3.85 0Z" fill="#D1D1D1"/>
</svg>
